<?xml version="1.0" encoding="UTF-8"?>
<svg width="800px" height="125px" viewBox="0 0 800 125" version="1.1" xmlns="http://www.w3.org/2000/svg" xmlns:xlink="http://www.w3.org/1999/xlink">
    <title>All_Wether_Icons</title>
    <g id="Page-1" stroke="none" stroke-width="1" fill="none" fill-rule="evenodd">
        <g id="All_Wether_Icons">
            <rect id="bg" fill="#FFFFFF" x="0" y="0" width="800" height="125"></rect>
            <g id="WeatherIcons" transform="translate(41.000000, 39.800000)" fill="#000000" fill-rule="nonzero">
                <path d="M706,41 C704.066667,41 702.416667,40.3166667 701.05,38.95 C699.683333,37.5833333 699,35.9333333 699,34 C699,32.0666667 699.683333,30.4166667 701.05,29.05 C702.416667,27.6833333 704.066667,27 706,27 C707.3,27 708.491667,27.35 709.575,28.05 C710.658333,28.75 711.45,29.7 711.95,30.9 L712.85,32.95 L715.05,32.95 C716.15,32.95 717.083333,33.35 717.85,34.15 C718.616667,34.95 719,35.9 719,37 C719,38.1 718.608333,39.0416667 717.825,39.825 C717.041667,40.6083333 716.1,41 715,41 L706,41 Z M721.9,37.35 C721.9,35.3166667 721.216667,33.575 719.85,32.125 C718.483333,30.675 716.8,29.95 714.8,29.95 C714.133333,28.0833333 713,26.6 711.4,25.5 C709.8,24.4 708,23.9 706,24 C706.466667,21.0666667 707.841667,18.6666667 710.125,16.8 C712.408333,14.9333333 715.033333,14 718,14 C721.333333,14 724.166667,15.1666667 726.5,17.5 C728.833333,19.8333333 730,22.6666667 730,26 C730,28.6 729.258333,30.9333333 727.775,33 C726.291667,35.0666667 724.333333,36.5166667 721.9,37.35 Z M716.5,11.5 L716.5,4 L719.5,4 L719.5,11.5 L716.5,11.5 Z M729.3,16.8 L727.2,14.65 L732.5,9.35 L734.6,11.5 L729.3,16.8 Z M732.5,27.5 L732.5,24.5 L740,24.5 L740,27.5 L732.5,27.5 Z M732.55,42.6 L727.25,37.3 L729.4,35.15 L734.7,40.45 L732.55,42.6 Z M706.7,16.8 L701.4,11.5 L703.5,9.4 L708.8,14.7 L706.7,16.8 Z" id="partly_cloudy"></path>
                <path d="M594.2,24.5 C596.14,24.5 597.918333,24.9583333 599.535,25.875 C601.151667,26.7916667 602.340392,28.05 603.101176,29.65 L603.500588,30.5 L604.584706,30.5 C606.296471,30.5 607.751471,31.0333333 608.949706,32.1 C610.147941,33.1666667 610.747059,34.4666667 610.747059,36 C610.747059,37.5333333 610.128922,38.8333333 608.892647,39.9 C607.656373,40.9666667 606.182353,41.5 604.470588,41.5 L594.2,41.5 C591.537255,41.5 589.254902,40.6666667 587.352941,39 C585.45098,37.3333333 584.5,35.3333333 584.5,33 C584.5,30.6333333 585.45098,28.625 587.352941,26.975 C589.254902,25.325 591.537255,24.5 594.2,24.5 Z M606.182353,3 C605.497647,6.26666667 605.706863,9.475 606.81,12.625 C607.913137,15.775 609.815098,18.5333333 612.515882,20.9 C615.216667,23.2666667 618.364412,24.9416667 621.959118,25.925 C625.553824,26.9083333 629.234118,27.1 633,26.5 C632.01098,31.3 629.386275,35.25 625.125882,38.35 C620.86549,41.45 615.958431,43 610.404706,43 L609.948235,43 C611.279608,42.2 612.316176,41.1833333 613.057941,39.95 C613.799706,38.7166667 614.170588,37.4 614.170588,36 C614.170588,33.8 613.371765,31.9166667 611.774118,30.35 C610.176471,28.7833333 608.179412,27.8666667 605.782941,27.6 C604.641765,25.7333333 603.044118,24.25 600.99,23.15 C598.935882,22.05 596.672549,21.5 594.2,21.5 C592.982745,21.5 591.79402,21.6416667 590.633824,21.925 C589.473627,22.2083333 588.38,22.6333333 587.352941,23.2 L587.352941,22.8 C587.352941,17.9333333 589.121765,13.6416667 592.659412,9.925 C596.197059,6.20833333 600.704706,3.9 606.182353,3 Z" id="cloudy_night"></path>
                <path d="M503.15,30.85 L517.65,23.7 L524.8,9.2 L510.3,16.35 L503.15,30.85 Z M514,22 C513.433333,22 512.958333,21.8083333 512.575,21.425 C512.191667,21.0416667 512,20.5666667 512,20 C512,19.4333333 512.191667,18.9583333 512.575,18.575 C512.958333,18.1916667 513.433333,18 514,18 C514.566667,18 515.041667,18.1916667 515.425,18.575 C515.808333,18.9583333 516,19.4333333 516,20 C516,20.5666667 515.808333,21.0416667 515.425,21.425 C515.041667,21.8083333 514.566667,22 514,22 Z M514,40 C511.266667,40 508.683333,39.475 506.25,38.425 C503.816667,37.375 501.691667,35.9416667 499.875,34.125 C498.058333,32.3083333 496.625,30.1833333 495.575,27.75 C494.525,25.3166667 494,22.7333333 494,20 C494,17.2333333 494.525,14.6333333 495.575,12.2 C496.625,9.76666667 498.058333,7.65 499.875,5.85 C501.691667,4.05 503.816667,2.625 506.25,1.575 C508.683333,0.525 511.266667,5.68434189e-14 514,5.68434189e-14 C516.766667,5.68434189e-14 519.366667,0.525 521.8,1.575 C524.233333,2.625 526.35,4.05 528.15,5.85 C529.95,7.65 531.375,9.76666667 532.425,12.2 C533.475,14.6333333 534,17.2333333 534,20 C534,22.7333333 533.475,25.3166667 532.425,27.75 C531.375,30.1833333 529.95,32.3083333 528.15,34.125 C526.35,35.9416667 524.233333,37.375 521.8,38.425 C519.366667,39.475 516.766667,40 514,40 Z" id="compass"></path>
                <path d="M418,40 C415.233333,40 412.875,39.025 410.925,37.075 C408.975,35.125 408,32.7666667 408,30 C408,28.3 408.383333,26.7 409.15,25.2 C409.916667,23.7 411.05,22.5833333 412.55,21.85 L412.55,5.45 C412.55,3.9361 413.079867,2.6493 414.1396,1.5896 C415.1993,0.529866667 416.4861,5.68434189e-14 418,5.68434189e-14 C419.5139,5.68434189e-14 420.8007,0.529866667 421.8604,1.5896 C422.920133,2.6493 423.45,3.9361 423.45,5.45 L423.45,21.85 C424.95,22.5833333 426.083333,23.7 426.85,25.2 C427.616667,26.7 428,28.3 428,30 C428,32.7666667 427.025,35.125 425.075,37.075 C423.125,39.025 420.766667,40 418,40 Z M415.55,18.25 L420.45,18.25 L420.45,15.6 L418,15.6 L418,13.65 L420.45,13.65 L420.45,9.3 L418,9.3 L418,7.375 L420.45,7.375 L420.45,5.45 C420.45,4.75583333 420.214617,4.17396667 419.74385,3.7044 C419.273083,3.2348 418.68975,3 417.99385,3 C417.29795,3 416.716667,3.2348 416.25,3.7044 C415.783333,4.17396667 415.55,4.75583333 415.55,5.45 L415.55,18.25 Z" id="thermometer"></path>
                <path d="M304,10 L304,7 L310,7 L310,10 L304,10 Z M309.7,21 L307.55,18.9 L311.8,14.65 L313.95,16.75 L309.7,21 Z M322,16 C319.533333,16 317.45,15.125 315.75,13.375 C314.05,11.625 313.133333,9.5 313,7 L331,7 C330.866667,9.5 329.95,11.625 328.25,13.375 C326.55,15.125 324.466667,16 322,16 Z M320.5,25 L320.5,19 L323.5,19 L323.5,25 L320.5,25 Z M334.3,20.95 L330.05,16.7 L332.15,14.6 L336.45,18.8 L334.3,20.95 Z M334,10 L334,7 L340,7 L340,10 L334,10 Z M302,42.45 L302,39.45 C303.266667,39.45 304.291667,39.0666667 305.075,38.3 C305.858333,37.5333333 307,37.15 308.5,37.15 C310,37.15 311.166667,37.6 312,38.5 C312.833333,39.4 313.9,39.85 315.2,39.85 C316.5,39.85 317.583333,39.4 318.45,38.5 C319.316667,37.6 320.5,37.15 322,37.15 C323.5,37.15 324.675,37.6 325.525,38.5 C326.375,39.4 327.45,39.85 328.75,39.85 C330.05,39.85 331.125,39.4 331.975,38.5 C332.825,37.6 334,37.15 335.5,37.15 C337,37.15 338.141667,37.5333333 338.925,38.3 C339.708333,39.0666667 340.733333,39.45 342,39.45 L342,42.45 C340.433333,42.45 339.275,42.0666667 338.525,41.3 C337.775,40.5333333 336.766667,40.15 335.5,40.15 C334.233333,40.15 333.166667,40.6 332.3,41.5 C331.433333,42.4 330.25,42.85 328.75,42.85 C327.25,42.85 326.066667,42.4 325.2,41.5 C324.333333,40.6 323.266667,40.15 322,40.15 C320.733333,40.15 319.658333,40.6 318.775,41.5 C317.891667,42.4 316.7,42.85 315.2,42.85 C313.7,42.85 312.525,42.4 311.675,41.5 C310.825,40.6 309.766667,40.15 308.5,40.15 C307.233333,40.15 306.225,40.5333333 305.475,41.3 C304.725,42.0666667 303.566667,42.45 302,42.45 Z M302,34.45 L302,31.45 C303.266667,31.45 304.291667,31.0666667 305.075,30.3 C305.858333,29.5333333 307,29.15 308.5,29.15 C310,29.15 311.166667,29.6 312,30.5 C312.833333,31.4 313.9,31.85 315.2,31.85 C316.5,31.85 317.583333,31.4 318.45,30.5 C319.316667,29.6 320.5,29.15 322,29.15 C323.5,29.15 324.675,29.6 325.525,30.5 C326.375,31.4 327.45,31.85 328.75,31.85 C330.05,31.85 331.125,31.4 331.975,30.5 C332.825,29.6 334,29.15 335.5,29.15 C337,29.15 338.141667,29.5333333 338.925,30.3 C339.708333,31.0666667 340.733333,31.45 342,31.45 L342,34.45 C340.433333,34.45 339.275,34.0666667 338.525,33.3 C337.775,32.5333333 336.766667,32.15 335.5,32.15 C334.233333,32.15 333.166667,32.6 332.3,33.5 C331.433333,34.4 330.25,34.85 328.75,34.85 C327.25,34.85 326.066667,34.4 325.2,33.5 C324.333333,32.6 323.266667,32.15 322,32.15 C320.733333,32.15 319.658333,32.6 318.775,33.5 C317.891667,34.4 316.7,34.85 315.2,34.85 C313.7,34.85 312.525,34.4 311.675,33.5 C310.825,32.6 309.766667,32.15 308.5,32.15 C307.233333,32.15 306.225,32.5333333 305.475,33.3 C304.725,34.0666667 303.566667,34.45 302,34.45 Z" id="sunny_sea"></path>
                <path d="M195.5,36 C192.6,36 190.125,34.975 188.075,32.925 C186.025,30.875 185,28.4 185,25.5 C185,22.8666667 185.941667,20.5166667 187.825,18.45 C189.708333,16.3833333 192.05,15.25 194.85,15.05 C195.916667,13.1833333 197.325,11.7083333 199.075,10.625 C200.825,9.54166667 202.8,9 205,9 C208.033333,9 210.575,9.95833333 212.625,11.875 C214.675,13.7916667 215.933333,16.1666667 216.4,19 C219.033333,19.1333333 221.125,20.025 222.675,21.675 C224.225,23.325 225,25.2666667 225,27.5 C225,29.8333333 224.175,31.8333333 222.525,33.5 C220.875,35.1666667 218.866667,36 216.5,36 L195.5,36 Z" id="cloud"></path>
                <path d="M107.2,40 C104.4,40 101.775,39.4666667 99.325,38.4 C96.875,37.3333333 94.7416667,35.8916667 92.925,34.075 C91.1083333,32.2583333 89.6666667,30.125 88.6,27.675 C87.5333333,25.225 87,22.6 87,19.8 C87,14.9333333 88.55,10.6416667 91.65,6.925 C94.75,3.20833333 98.7,0.9 103.5,0 C102.9,3.26666667 103.083333,6.475 104.05,9.625 C105.016667,12.775 106.683333,15.5333333 109.05,17.9 C111.416667,20.2666667 114.175,21.9416667 117.325,22.925 C120.475,23.9083333 123.7,24.1 127,23.5 C126.133333,28.3 123.833333,32.25 120.1,35.35 C116.366667,38.45 112.066667,40 107.2,40 Z" id="clear_night"></path>
                <path d="M20.5,8.5 L20.5,1 L23.5,1 L23.5,8.5 L20.5,8.5 Z M33.3,13.8 L31.2,11.7 L36.5,6.35 L38.6,8.5 L33.3,13.8 Z M36.5,24.5 L36.5,21.5 L44,21.5 L44,24.5 L36.5,24.5 Z M20.5,45 L20.5,37.5 L23.5,37.5 L23.5,45 L20.5,45 Z M10.65,13.75 L5.4,8.5 L7.5,6.4 L12.8,11.7 L10.65,13.75 Z M36.55,39.6 L31.2,34.3 L33.25,32.25 L38.65,37.45 L36.55,39.6 Z M0,24.5 L0,21.5 L7.5,21.5 L7.5,24.5 L0,24.5 Z M7.55,39.6 L5.4,37.5 L10.65,32.25 L11.75,33.25 L12.85,34.3 L7.55,39.6 Z M22,35 C18.6666667,35 15.8333333,33.8333333 13.5,31.5 C11.1666667,29.1666667 10,26.3333333 10,23 C10,19.6666667 11.1666667,16.8333333 13.5,14.5 C15.8333333,12.1666667 18.6666667,11 22,11 C25.3333333,11 28.1666667,12.1666667 30.5,14.5 C32.8333333,16.8333333 34,19.6666667 34,23 C34,26.3333333 32.8333333,29.1666667 30.5,31.5 C28.1666667,33.8333333 25.3333333,35 22,35 Z" id="sunny"></path>
            </g>
        </g>
    </g>
</svg>