<?xml version="1.0" encoding="UTF-8"?>
<svg width="192px" height="192px" viewBox="0 0 192 192" version="1.1" xmlns="http://www.w3.org/2000/svg" xmlns:xlink="http://www.w3.org/1999/xlink">
    <title>SunnySea</title>
    <g id="Page-1" stroke="none" stroke-width="1" fill="none" fill-rule="evenodd">
        <g id="SunnySea">
            <rect id="bg" fill-opacity="0.01" fill="#FFFFFF" x="0" y="0" width="192" height="192"></rect>
            <path d="M20.4,39.2 L20.4,27.2 L45.6,27.2 L45.6,39.2 L20.4,39.2 Z M44.34,83.2 L35.31,74.8 L53.16,57.8 L62.19,66.2 L44.34,83.2 Z M96,63.2 C85.64,63.2 76.89,59.7 69.75,52.7 C62.61,45.7 58.76,37.2 58.2,27.2 L133.8,27.2 C133.24,37.2 129.39,45.7 122.25,52.7 C115.11,59.7 106.36,63.2 96,63.2 Z M89.7,99.2 L89.7,75.2 L102.3,75.2 L102.3,99.2 L89.7,99.2 Z M147.66,83 L129.81,66 L138.63,57.6 L156.69,74.4 L147.66,83 Z M146.4,39.2 L146.4,27.2 L171.6,27.2 L171.6,39.2 L146.4,39.2 Z M12,169 L12,157 C17.32,157 21.625,155.466667 24.915,152.4 C28.205,149.333333 33,147.8 39.3,147.8 C45.6,147.8 50.5,149.6 54,153.2 C57.5,156.8 61.98,158.6 67.44,158.6 C72.9,158.6 77.45,156.8 81.09,153.2 C84.73,149.6 89.7,147.8 96,147.8 C102.3,147.8 107.235,149.6 110.805,153.2 C114.375,156.8 118.89,158.6 124.35,158.6 C129.81,158.6 134.325,156.8 137.895,153.2 C141.465,149.6 146.4,147.8 152.7,147.8 C159,147.8 163.795,149.333333 167.085,152.4 C170.375,155.466667 174.68,157 180,157 L180,169 C173.42,169 168.555,167.466667 165.405,164.4 C162.255,161.333333 158.02,159.8 152.7,159.8 C147.38,159.8 142.9,161.6 139.26,165.2 C135.62,168.8 130.65,170.6 124.35,170.6 C118.05,170.6 113.08,168.8 109.44,165.2 C105.8,161.6 101.32,159.8 96,159.8 C90.68,159.8 86.165,161.6 82.455,165.2 C78.745,168.8 73.74,170.6 67.44,170.6 C61.14,170.6 56.205,168.8 52.635,165.2 C49.065,161.6 44.62,159.8 39.3,159.8 C33.98,159.8 29.745,161.333333 26.595,164.4 C23.445,167.466667 18.58,169 12,169 Z M12,137 L12,125 C17.32,125 21.625,123.466667 24.915,120.4 C28.205,117.333333 33,115.8 39.3,115.8 C45.6,115.8 50.5,117.6 54,121.2 C57.5,124.8 61.98,126.6 67.44,126.6 C72.9,126.6 77.45,124.8 81.09,121.2 C84.73,117.6 89.7,115.8 96,115.8 C102.3,115.8 107.235,117.6 110.805,121.2 C114.375,124.8 118.89,126.6 124.35,126.6 C129.81,126.6 134.325,124.8 137.895,121.2 C141.465,117.6 146.4,115.8 152.7,115.8 C159,115.8 163.795,117.333333 167.085,120.4 C170.375,123.466667 174.68,125 180,125 L180,137 C173.42,137 168.555,135.466667 165.405,132.4 C162.255,129.333333 158.02,127.8 152.7,127.8 C147.38,127.8 142.9,129.6 139.26,133.2 C135.62,136.8 130.65,138.6 124.35,138.6 C118.05,138.6 113.08,136.8 109.44,133.2 C105.8,129.6 101.32,127.8 96,127.8 C90.68,127.8 86.165,129.6 82.455,133.2 C78.745,136.8 73.74,138.6 67.44,138.6 C61.14,138.6 56.205,136.8 52.635,133.2 C49.065,129.6 44.62,127.8 39.3,127.8 C33.98,127.8 29.745,129.333333 26.595,132.4 C23.445,135.466667 18.58,137 12,137 Z" id="sunny_sea" fill="#000000" fill-rule="nonzero"></path>
        </g>
    </g>
</svg>