<?xml version="1.0" encoding="UTF-8"?>
<svg width="48px" height="48px" viewBox="0 0 48 48" version="1.1" xmlns="http://www.w3.org/2000/svg" xmlns:xlink="http://www.w3.org/1999/xlink">
    <title>SunnySea</title>
    <g id="Page-1" stroke="none" stroke-width="1" fill="none" fill-rule="evenodd">
        <g id="SunnySea">
            <rect id="bg" fill-opacity="0.01" fill="#FFFFFF" x="0" y="0" width="48" height="48"></rect>
            <path d="M5.1,9.8 L5.1,6.8 L11.4,6.8 L11.4,9.8 L5.1,9.8 Z M11.085,20.8 L8.8275,18.7 L13.29,14.45 L15.5475,16.55 L11.085,20.8 Z M24,15.8 C21.41,15.8 19.2225,14.925 17.4375,13.175 C15.6525,11.425 14.69,9.3 14.55,6.8 L33.45,6.8 C33.31,9.3 32.3475,11.425 30.5625,13.175 C28.7775,14.925 26.59,15.8 24,15.8 Z M22.425,24.8 L22.425,18.8 L25.575,18.8 L25.575,24.8 L22.425,24.8 Z M36.915,20.75 L32.4525,16.5 L34.6575,14.4 L39.1725,18.6 L36.915,20.75 Z M36.6,9.8 L36.6,6.8 L42.9,6.8 L42.9,9.8 L36.6,9.8 Z M3,42.25 L3,39.25 C4.33,39.25 5.40625,38.8666667 6.22875,38.1 C7.05125,37.3333333 8.25,36.95 9.825,36.95 C11.4,36.95 12.625,37.4 13.5,38.3 C14.375,39.2 15.495,39.65 16.86,39.65 C18.225,39.65 19.3625,39.2 20.2725,38.3 C21.1825,37.4 22.425,36.95 24,36.95 C25.575,36.95 26.80875,37.4 27.70125,38.3 C28.59375,39.2 29.7225,39.65 31.0875,39.65 C32.4525,39.65 33.58125,39.2 34.47375,38.3 C35.36625,37.4 36.6,36.95 38.175,36.95 C39.75,36.95 40.94875,37.3333333 41.77125,38.1 C42.59375,38.8666667 43.67,39.25 45,39.25 L45,42.25 C43.355,42.25 42.13875,41.8666667 41.35125,41.1 C40.56375,40.3333333 39.505,39.95 38.175,39.95 C36.845,39.95 35.725,40.4 34.815,41.3 C33.905,42.2 32.6625,42.65 31.0875,42.65 C29.5125,42.65 28.27,42.2 27.36,41.3 C26.45,40.4 25.33,39.95 24,39.95 C22.67,39.95 21.54125,40.4 20.61375,41.3 C19.68625,42.2 18.435,42.65 16.86,42.65 C15.285,42.65 14.05125,42.2 13.15875,41.3 C12.26625,40.4 11.155,39.95 9.825,39.95 C8.495,39.95 7.43625,40.3333333 6.64875,41.1 C5.86125,41.8666667 4.645,42.25 3,42.25 Z M3,34.25 L3,31.25 C4.33,31.25 5.40625,30.8666667 6.22875,30.1 C7.05125,29.3333333 8.25,28.95 9.825,28.95 C11.4,28.95 12.625,29.4 13.5,30.3 C14.375,31.2 15.495,31.65 16.86,31.65 C18.225,31.65 19.3625,31.2 20.2725,30.3 C21.1825,29.4 22.425,28.95 24,28.95 C25.575,28.95 26.80875,29.4 27.70125,30.3 C28.59375,31.2 29.7225,31.65 31.0875,31.65 C32.4525,31.65 33.58125,31.2 34.47375,30.3 C35.36625,29.4 36.6,28.95 38.175,28.95 C39.75,28.95 40.94875,29.3333333 41.77125,30.1 C42.59375,30.8666667 43.67,31.25 45,31.25 L45,34.25 C43.355,34.25 42.13875,33.8666667 41.35125,33.1 C40.56375,32.3333333 39.505,31.95 38.175,31.95 C36.845,31.95 35.725,32.4 34.815,33.3 C33.905,34.2 32.6625,34.65 31.0875,34.65 C29.5125,34.65 28.27,34.2 27.36,33.3 C26.45,32.4 25.33,31.95 24,31.95 C22.67,31.95 21.54125,32.4 20.61375,33.3 C19.68625,34.2 18.435,34.65 16.86,34.65 C15.285,34.65 14.05125,34.2 13.15875,33.3 C12.26625,32.4 11.155,31.95 9.825,31.95 C8.495,31.95 7.43625,32.3333333 6.64875,33.1 C5.86125,33.8666667 4.645,34.25 3,34.25 Z" id="sunny_sea" fill="#000000" fill-rule="nonzero"></path>
        </g>
    </g>
</svg>